<svg width="26" height="25" viewBox="0 0 26 25" fill="none" xmlns="http://www.w3.org/2000/svg">
<mask id="path-1-inside-1_0_103" fill="white">
<path d="M13.7977 13.7046L23.842 13.7046C24.0144 13.7179 24.1877 13.6955 24.3511 13.6386C24.5144 13.5818 24.6643 13.4918 24.7912 13.3744C24.9181 13.2569 25.0194 13.1144 25.0886 12.956C25.1579 12.7975 25.1936 12.6264 25.1936 12.4535C25.1936 12.2805 25.1579 12.1095 25.0886 11.951C25.0194 11.7925 24.9181 11.6501 24.7912 11.5326C24.6643 11.4151 24.5144 11.3251 24.3511 11.2683C24.1877 11.2115 24.0144 11.189 23.842 11.2024L13.7977 11.2024L13.7977 1.15804C13.7733 0.84293 13.6309 0.548625 13.3989 0.333936C13.167 0.119248 12.8626 -1.17478e-05 12.5465 -1.17689e-05C12.2305 -1.18218e-05 11.9261 0.119248 11.6941 0.333936C11.4622 0.548625 11.3198 0.84293 11.2954 1.15804L11.2954 11.2024L1.25111 11.2024C0.919605 11.2034 0.601953 11.3355 0.367539 11.5699C0.133125 11.8043 0.000996616 12.122 1.01763e-05 12.4535C0.000996997 12.785 0.133125 13.1026 0.36754 13.337C0.601954 13.5715 0.919605 13.7036 1.25111 13.7046L11.2954 13.7046L11.2954 23.7489C11.2964 24.0804 11.4286 24.3981 11.663 24.6325C11.8974 24.8669 12.215 24.999 12.5466 25C12.8781 24.999 13.1957 24.8669 13.4301 24.6325C13.6645 24.3981 13.7967 24.0804 13.7977 23.7489V13.7046Z"/>
</mask>
<path d="M13.7977 13.7046L23.842 13.7046C24.0144 13.7179 24.1877 13.6955 24.3511 13.6386C24.5144 13.5818 24.6643 13.4918 24.7912 13.3744C24.9181 13.2569 25.0194 13.1144 25.0886 12.956C25.1579 12.7975 25.1936 12.6264 25.1936 12.4535C25.1936 12.2805 25.1579 12.1095 25.0886 11.951C25.0194 11.7925 24.9181 11.6501 24.7912 11.5326C24.6643 11.4151 24.5144 11.3251 24.3511 11.2683C24.1877 11.2115 24.0144 11.189 23.842 11.2024L13.7977 11.2024L13.7977 1.15804C13.7733 0.84293 13.6309 0.548625 13.3989 0.333936C13.167 0.119248 12.8626 -1.17478e-05 12.5465 -1.17689e-05C12.2305 -1.18218e-05 11.9261 0.119248 11.6941 0.333936C11.4622 0.548625 11.3198 0.84293 11.2954 1.15804L11.2954 11.2024L1.25111 11.2024C0.919605 11.2034 0.601953 11.3355 0.367539 11.5699C0.133125 11.8043 0.000996616 12.122 1.01763e-05 12.4535C0.000996997 12.785 0.133125 13.1026 0.36754 13.337C0.601954 13.5715 0.919605 13.7036 1.25111 13.7046L11.2954 13.7046L11.2954 23.7489C11.2964 24.0804 11.4286 24.3981 11.663 24.6325C11.8974 24.8669 12.215 24.999 12.5466 25C12.8781 24.999 13.1957 24.8669 13.4301 24.6325C13.6645 24.3981 13.7967 24.0804 13.7977 23.7489V13.7046Z" fill="black"/>
<path d="M13.7977 13.7046L13.7977 11.1949H11.288L11.288 13.7046L13.7977 13.7046ZM23.842 13.7046L24.0356 11.2024L23.9389 11.1949H23.842L23.842 13.7046ZM23.842 11.2024L23.842 13.7121L23.9389 13.7121L24.0356 13.7046L23.842 11.2024ZM13.7977 11.2024L11.288 11.2024L11.288 13.7121L13.7977 13.7121L13.7977 11.2024ZM13.7977 1.15804L16.3073 1.15804V1.0611L16.2999 0.96445L13.7977 1.15804ZM11.2954 1.15804L8.79323 0.96445L8.78576 1.0611V1.15804L11.2954 1.15804ZM11.2954 11.2024L11.2954 13.7121L13.8051 13.7121L13.8051 11.2024L11.2954 11.2024ZM1.25111 11.2024L1.25111 8.69267L1.24365 8.69269L1.25111 11.2024ZM1.01763e-05 12.4535L-2.50967 12.446L-2.50969 12.4535L-2.50967 12.4609L1.01763e-05 12.4535ZM1.25111 13.7046L1.24365 16.2143L1.25111 16.2143L1.25111 13.7046ZM11.2954 13.7046L13.8051 13.7046V11.1949L11.2954 11.1949L11.2954 13.7046ZM11.2954 23.7489L8.78575 23.7489L8.78577 23.7564L11.2954 23.7489ZM12.5466 25L12.5391 27.5097L12.5466 27.5097L12.554 27.5097L12.5466 25ZM13.7977 23.7489L16.3073 23.7564L16.3073 23.7489L13.7977 23.7489ZM13.7977 16.2143L23.842 16.2143L23.842 11.1949L13.7977 11.1949L13.7977 16.2143ZM23.6484 16.2068C24.1657 16.2468 24.6857 16.1795 25.1757 16.009L23.5265 11.2683C23.6898 11.2115 23.8631 11.189 24.0356 11.2024L23.6484 16.2068ZM25.1757 16.009C25.6657 15.8385 26.1152 15.5686 26.496 15.2162L23.0864 11.5326C23.2133 11.4151 23.3631 11.3251 23.5265 11.2683L25.1757 16.009ZM26.496 15.2162C26.8767 14.8637 27.1805 14.4364 27.3883 13.961L22.7889 11.951C22.8582 11.7925 22.9595 11.6501 23.0864 11.5326L26.496 15.2162ZM27.3883 13.961C27.5961 13.4855 27.7033 12.9723 27.7033 12.4535L22.6839 12.4535C22.6839 12.2805 22.7197 12.1095 22.7889 11.951L27.3883 13.961ZM27.7033 12.4535C27.7033 11.9346 27.5961 11.4214 27.3883 10.946L22.7889 12.956C22.7197 12.7975 22.6839 12.6264 22.6839 12.4535L27.7033 12.4535ZM27.3883 10.946C27.1805 10.4706 26.8767 10.0432 26.496 9.69079L23.0864 13.3744C22.9595 13.2569 22.8582 13.1144 22.7889 12.956L27.3883 10.946ZM26.496 9.69079C26.1152 9.33836 25.6657 9.06843 25.1757 8.89795L23.5265 13.6386C23.3631 13.5818 23.2133 13.4918 23.0864 13.3744L26.496 9.69079ZM25.1757 8.89795C24.6857 8.72748 24.1657 8.66014 23.6484 8.70016L24.0356 13.7046C23.8631 13.7179 23.6898 13.6955 23.5265 13.6386L25.1757 8.89795ZM23.842 8.69268L13.7977 8.69268L13.7977 13.7121L23.842 13.7121L23.842 8.69268ZM16.3073 11.2024L16.3073 1.15804L11.288 1.15804L11.288 11.2024L16.3073 11.2024ZM16.2999 0.96445C16.2267 0.0191287 15.7996 -0.863785 15.1037 -1.50785L11.6941 2.17573C11.4622 1.96104 11.3198 1.66673 11.2954 1.35163L16.2999 0.96445ZM15.1037 -1.50785C14.4079 -2.15192 13.4947 -2.5097 12.5465 -2.5097L12.5465 2.50968C12.2305 2.50968 11.9261 2.39042 11.6941 2.17573L15.1037 -1.50785ZM12.5465 -2.5097C11.5984 -2.5097 10.6852 -2.15192 9.98935 -1.50785L13.3989 2.17573C13.167 2.39042 12.8626 2.50968 12.5465 2.50968L12.5465 -2.5097ZM9.98935 -1.50785C9.29353 -0.863785 8.86637 0.0191289 8.79323 0.96445L13.7977 1.35163C13.7733 1.66673 13.6309 1.96103 13.3989 2.17573L9.98935 -1.50785ZM8.78576 1.15804L8.78576 11.2024L13.8051 11.2024L13.8051 1.15804L8.78576 1.15804ZM11.2954 8.69268L1.25111 8.69268L1.25111 13.7121L11.2954 13.7121L11.2954 8.69268ZM1.24365 8.69269C0.249123 8.69565 -0.703831 9.09203 -1.40708 9.79528L2.14216 13.3445C1.90774 13.5789 1.59009 13.7111 1.25858 13.712L1.24365 8.69269ZM-1.40708 9.79528C-2.11032 10.4985 -2.50671 11.4515 -2.50967 12.446L2.50969 12.4609C2.5087 12.7924 2.37657 13.1101 2.14216 13.3445L-1.40708 9.79528ZM-2.50967 12.4609C-2.50671 13.4555 -2.11032 14.4084 -1.40708 15.1117L2.14216 11.5624C2.37657 11.7968 2.5087 12.1145 2.50969 12.446L-2.50967 12.4609ZM-1.40708 15.1117C-0.703835 15.8149 0.249116 16.2113 1.24365 16.2143L1.25858 11.1949C1.59009 11.1959 1.90774 11.328 2.14216 11.5624L-1.40708 15.1117ZM1.25111 16.2143L11.2954 16.2143L11.2954 11.1949L1.25112 11.1949L1.25111 16.2143ZM8.78576 13.7046L8.78576 23.7489L13.8051 23.7489L13.8051 13.7046L8.78576 13.7046ZM8.78577 23.7564C8.78873 24.7509 9.18512 25.7039 9.88836 26.4071L13.4376 22.8579C13.672 23.0923 13.8041 23.4099 13.8051 23.7414L8.78577 23.7564ZM9.88836 26.4071C10.5916 27.1103 11.5446 27.5067 12.5391 27.5097L12.554 22.4903C12.8855 22.4913 13.2032 22.6235 13.4376 22.8579L9.88836 26.4071ZM12.554 27.5097C13.5485 27.5067 14.5015 27.1103 15.2047 26.4071L11.6555 22.8579C11.8899 22.6235 12.2076 22.4913 12.5391 22.4903L12.554 27.5097ZM15.2047 26.4071C15.908 25.7039 16.3044 24.7509 16.3073 23.7564L11.288 23.7414C11.289 23.4099 11.4211 23.0923 11.6555 22.8579L15.2047 26.4071ZM16.3073 23.7489L16.3073 13.7046L11.288 13.7046L11.288 23.7489L16.3073 23.7489Z" fill="#FCFCFC" mask="url(#path-1-inside-1_0_103)"/>
</svg>
